{
  "accessors": [
    {
      "bufferView": 2,
      "componentType": 5126,
      "count": 22328,
      "max": [
        1.0099765062332153,
        0.30462437868118286,
        0.16478267312049866
      ],
      "min": [
        -1.0100760459899902,
        -0.3883924186229706,
        -0.03970158100128174
      ],
      "type": "VEC3"
    },
    {
      "bufferView": 2,
      "byteOffset": 267936,
      "componentType": 5126,
      "count": 22328,
      "max": [
        0.9999330043792725,
        0.9999975562095642,
        0.9999822974205017
      ],
      "min": [
        -0.999950647354126,
        -0.9999998807907104,
        -0.9999998807907104
      ],
      "type": "VEC3"
    },
    {
      "bufferView": 1,
      "componentType": 5126,
      "count": 22328,
      "max": [
        0.7620599865913391,
        0.9980499744415283
      ],
      "min": [
        0.0019499999471008778,
        0.0019600000232458115
      ],
      "type": "VEC2"
    },
    {
      "bufferView": 0,
      "componentType": 5125,
      "count": 122208,
      "type": "SCALAR"
    },
    {
      "bufferView": 2,
      "byteOffset": 535872,
      "componentType": 5126,
      "count": 13310,
      "max": [
        1.0079066753387451,
        0.23205721378326416,
        -0.037404369562864304
      ],
      "min": [
        -1.0078390836715698,
        -0.17230546474456787,
        -1.7524640560150146
      ],
      "type": "VEC3"
    },
    {
      "bufferView": 2,
      "byteOffset": 695592,
      "componentType": 5126,
      "count": 13310,
      "max": [
        0.9999811053276062,
        1.0,
        1.0
      ],
      "min": [
        -0.9999909400939941,
        -1.0,
        -0.9994367957115173
      ],
      "type": "VEC3"
    },
    {
      "bufferView": 1,
      "byteOffset": 178624,
      "componentType": 5126,
      "count": 13310,
      "max": [
        0.9918529987335205,
        0.946331262588501
      ],
      "min": [
        0.008147003129124641,
        0.008147003129124641
      ],
      "type": "VEC2"
    },
    {
      "bufferView": 1,
      "byteOffset": 285104,
      "componentType": 5126,
      "count": 13310,
      "max": [
        0.9918529987335205,
        0.946331262588501
      ],
      "min": [
        0.008147003129124641,
        0.008147003129124641
      ],
      "type": "VEC2"
    },
    {
      "bufferView": 1,
      "byteOffset": 391584,
      "componentType": 5126,
      "count": 13310,
      "max": [
        0.9918529987335205,
        0.946331262588501
      ],
      "min": [
        0.008147003129124641,
        0.008147003129124641
      ],
      "type": "VEC2"
    },
    {
      "bufferView": 0,
      "byteOffset": 488832,
      "componentType": 5125,
      "count": 65760,
      "type": "SCALAR"
    },
    {
      "bufferView": 2,
      "byteOffset": 855312,
      "componentType": 5126,
      "count": 32261,
      "max": [
        0.9215558171272278,
        0.2608802914619446,
        0.12176568061113358
      ],
      "min": [
        -0.9215555787086487,
        -0.3407418429851532,
        -0.005788560025393963
      ],
      "type": "VEC3"
    },
    {
      "bufferView": 2,
      "byteOffset": 1242444,
      "componentType": 5126,
      "count": 32261,
      "max": [
        0.9998303651809692,
        0.9999881386756897,
        0.9999764561653137
      ],
      "min": [
        -0.9998286962509155,
        -0.9999537467956543,
        -0.9999985694885254
      ],
      "type": "VEC3"
    },
    {
      "bufferView": 1,
      "byteOffset": 498064,
      "componentType": 5126,
      "count": 32261,
      "max": [
        0.9511200189590454,
        0.9980499744415283
      ],
      "min": [
        0.7505199909210205,
        0.4096999764442444
      ],
      "type": "VEC2"
    },
    {
      "bufferView": 0,
      "byteOffset": 751872,
      "componentType": 5125,
      "count": 173952,
      "type": "SCALAR"
    }
  ],
  "asset": {
    "extras": {
      "author": "nazarchi091 (https://sketchfab.com/nazarchi091)",
      "license": "CC-BY-4.0 (http://creativecommons.org/licenses/by/4.0/)",
      "source": "https://sketchfab.com/3d-models/black-glasses-8425ebedb9334fc3a1e6d7a72f5612b4",
      "title": "Black Glasses"
    },
    "generator": "Sketchfab-12.68.0",
    "version": "2.0"
  },
  "bufferViews": [
    {
      "buffer": 0,
      "byteLength": 1447680,
      "name": "floatBufferViews",
      "target": 34963
    },
    {
      "buffer": 0,
      "byteLength": 756152,
      "byteOffset": 1447680,
      "byteStride": 8,
      "name": "floatBufferViews",
      "target": 34962
    },
    {
      "buffer": 0,
      "byteLength": 1629576,
      "byteOffset": 2203832,
      "byteStride": 12,
      "name": "floatBufferViews",
      "target": 34962
    }
  ],
  "buffers": [
    {
      "byteLength": 3833408,
      "uri": "scene.bin"
    }
  ],
  "images": [
    {
      "uri": "textures/Handles_baseColor.jpeg"
    },
    {
      "uri": "textures/Handles_metallicRoughness.png"
    }
  ],
  "materials": [
    {
      "name": "Frame",
      "pbrMetallicRoughness": {
        "baseColorFactor": [
          0.00557283,
          0.00557283,
          0.00557283,
          1.0
        ],
        "metallicFactor": 0.0,
        "roughnessFactor": 0.154154
      }
    },
    {
      "name": "Handles",
      "pbrMetallicRoughness": {
        "baseColorTexture": {
          "index": 0
        },
        "metallicFactor": 0.0,
        "metallicRoughnessTexture": {
          "index": 1
        }
      }
    },
    {
      "alphaMode": "BLEND",
      "name": "Frame.1",
      "pbrMetallicRoughness": {
        "baseColorFactor": [
          1.0,
          1.0,
          1.0,
          0.0
        ],
        "metallicFactor": 0.0,
        "roughnessFactor": 0.227325
      }
    }
  ],
  "meshes": [
    {
      "name": "Object_0",
      "primitives": [
        {
          "attributes": {
            "NORMAL": 1,
            "POSITION": 0,
            "TEXCOORD_0": 2
          },
          "indices": 3,
          "material": 0,
          "mode": 4
        }
      ]
    },
    {
      "name": "Object_1",
      "primitives": [
        {
          "attributes": {
            "NORMAL": 5,
            "POSITION": 4,
            "TEXCOORD_0": 6,
            "TEXCOORD_1": 7,
            "TEXCOORD_2": 8
          },
          "indices": 9,
          "material": 1,
          "mode": 4
        }
      ]
    },
    {
      "name": "Object_2",
      "primitives": [
        {
          "attributes": {
            "NORMAL": 11,
            "POSITION": 10,
            "TEXCOORD_0": 12
          },
          "indices": 13,
          "material": 2,
          "mode": 4
        }
      ]
    }
  ],
  "nodes": [
    {
      "children": [
        1
      ],
      "matrix": [
        1.0,
        0.0,
        0.0,
        0.0,
        0.0,
        2.220446049250313e-16,
        -1.0,
        0.0,
        0.0,
        1.0,
        2.220446049250313e-16,
        0.0,
        0.0,
        0.0,
        0.0,
        1.0
      ],
      "name": "Sketchfab_model"
    },
    {
      "children": [
        2
      ],
      "name": "root"
    },
    {
      "children": [
        3
      ],
      "matrix": [
        1.0,
        0.0,
        0.0,
        0.0,
        0.0,
        2.220446049250313e-16,
        1.0,
        0.0,
        0.0,
        -1.0,
        2.220446049250313e-16,
        0.0,
        0.0,
        0.0,
        0.0,
        1.0
      ],
      "name": "GLTF_SceneRootNode"
    },
    {
      "children": [
        4
      ],
      "matrix": [
        1.0,
        0.0,
        -0.0,
        0.0,
        -0.0,
        0.0,
        -1.0,
        0.0,
        0.0,
        1.0,
        0.0,
        0.0,
        0.0,
        0.0,
        0.0,
        1.0
      ],
      "name": "RootNode (gltf orientation matrix)_0"
    },
    {
      "children": [
        5
      ],
      "name": "RootNode (model correction matrix)_1"
    },
    {
      "children": [
        6
      ],
      "name": "root_2"
    },
    {
      "children": [
        7
      ],
      "matrix": [
        1.0,
        0.0,
        0.0,
        0.0,
        0.0,
        2.220446049250313e-16,
        1.0,
        0.0,
        0.0,
        -1.0,
        2.220446049250313e-16,
        0.0,
        0.0,
        0.0,
        0.0,
        1.0
      ],
      "name": "GLTF_SceneRootNode_3"
    },
    {
      "children": [
        8,
        11,
        14
      ],
      "name": "glasses OBJ.OBJ_0_4"
    },
    {
      "children": [
        9
      ],
      "name": "Frame_1_5"
    },
    {
      "children": [
        10
      ],
      "name": "_6"
    },
    {
      "mesh": 0,
      "name": "Object_10"
    },
    {
      "children": [
        12
      ],
      "name": "Handles_2_7"
    },
    {
      "children": [
        13
      ],
      "name": "_8"
    },
    {
      "mesh": 1,
      "name": "Object_13"
    },
    {
      "children": [
        15
      ],
      "name": "Glasses_3_9"
    },
    {
      "children": [
        16
      ],
      "name": "_10"
    },
    {
      "mesh": 2,
      "name": "Object_16"
    }
  ],
  "samplers": [
    {
      "magFilter": 9729,
      "minFilter": 9987,
      "wrapS": 10497,
      "wrapT": 10497
    }
  ],
  "scene": 0,
  "scenes": [
    {
      "name": "Sketchfab_Scene",
      "nodes": [
        0
      ]
    }
  ],
  "textures": [
    {
      "sampler": 0,
      "source": 0
    },
    {
      "sampler": 0,
      "source": 1
    }
  ]
}
