{
  "accessors": [
    {
      "bufferView": 2,
      "componentType": 5126,
      "count": 72,
      "max": [
        0.6525819897651672,
        -0.39685800671577454,
        0.25297701358795166
      ],
      "min": [
        -0.6525819897651672,
        -0.3992280066013336,
        0.23411600291728973
      ],
      "type": "VEC3"
    },
    {
      "bufferView": 2,
      "byteOffset": 864,
      "componentType": 5126,
      "count": 72,
      "max": [
        0.9883700609207153,
        0.7646586298942566,
        0.6341096758842468
      ],
      "min": [
        -0.9883710145950317,
        -0.15200552344322205,
        -0.6356230974197388
      ],
      "type": "VEC3"
    },
    {
      "bufferView": 1,
      "componentType": 5126,
      "count": 72,
      "max": [
        0.914933979511261,
        0.9213280081748962
      ],
      "min": [
        0.00860700011253357,
        0.029904000461101532
      ],
      "type": "VEC2"
    },
    {
      "bufferView": 0,
      "componentType": 5125,
      "count": 108,
      "type": "SCALAR"
    },
    {
      "bufferView": 2,
      "byteOffset": 1728,
      "componentType": 5126,
      "count": 65532,
      "max": [
        0.7831770181655884,
        0.5105710029602051,
        0.4635469913482666
      ],
      "min": [
        -0.6523190140724182,
        -0.5501350164413452,
        0.0034660000819712877
      ],
      "type": "VEC3"
    },
    {
      "bufferView": 2,
      "byteOffset": 788112,
      "componentType": 5126,
      "count": 65532,
      "max": [
        1.0,
        0.9999998807907104,
        1.0
      ],
      "min": [
        -1.0,
        -1.0,
        -1.0
      ],
      "type": "VEC3"
    },
    {
      "bufferView": 1,
      "byteOffset": 576,
      "componentType": 5126,
      "count": 65532,
      "max": [
        0.9899889826774597,
        0.9875100255012512
      ],
      "min": [
        0.0,
        0.0
      ],
      "type": "VEC2"
    },
    {
      "bufferView": 0,
      "byteOffset": 432,
      "componentType": 5125,
      "count": 307758,
      "type": "SCALAR"
    },
    {
      "bufferView": 2,
      "byteOffset": 1574496,
      "componentType": 5126,
      "count": 41139,
      "max": [
        0.6860960125923157,
        0.5105710029602051,
        0.4635469913482666
      ],
      "min": [
        -0.7831770181655884,
        -0.5500609874725342,
        0.0034660000819712877
      ],
      "type": "VEC3"
    },
    {
      "bufferView": 2,
      "byteOffset": 2068164,
      "componentType": 5126,
      "count": 41139,
      "max": [
        1.0,
        1.0,
        1.0
      ],
      "min": [
        -1.0,
        -1.0,
        -1.0
      ],
      "type": "VEC3"
    },
    {
      "bufferView": 1,
      "byteOffset": 524832,
      "componentType": 5126,
      "count": 41139,
      "max": [
        0.9997760057449341,
        0.9875199794769287
      ],
      "min": [
        0.0,
        0.0
      ],
      "type": "VEC2"
    },
    {
      "bufferView": 0,
      "byteOffset": 1231464,
      "componentType": 5125,
      "count": 187254,
      "type": "SCALAR"
    },
    {
      "bufferView": 2,
      "byteOffset": 2561832,
      "componentType": 5126,
      "count": 5959,
      "max": [
        0.7872949838638306,
        0.9880030155181885,
        0.27376100420951843
      ],
      "min": [
        -0.7872959971427917,
        0.5033980011940002,
        0.2176630049943924
      ],
      "type": "VEC3"
    },
    {
      "bufferView": 2,
      "byteOffset": 2633340,
      "componentType": 5126,
      "count": 5959,
      "max": [
        0.9999945163726807,
        0.9999662637710571,
        1.0
      ],
      "min": [
        -0.9999945163726807,
        -0.9999868869781494,
        -1.0
      ],
      "type": "VEC3"
    },
    {
      "bufferView": 3,
      "componentType": 5126,
      "count": 5959,
      "max": [
        0.9985508918762207,
        0.7693792581558228,
        1.0,
        1.0
      ],
      "min": [
        -0.9999927878379822,
        -0.9997537732124329,
        -1.0,
        1.0
      ],
      "type": "VEC4"
    },
    {
      "bufferView": 1,
      "byteOffset": 853944,
      "componentType": 5126,
      "count": 5959,
      "max": [
        0.8729770183563232,
        0.9623469710350037
      ],
      "min": [
        0.006858999840915203,
        0.735722005367279
      ],
      "type": "VEC2"
    },
    {
      "bufferView": 0,
      "byteOffset": 1980480,
      "componentType": 5125,
      "count": 30240,
      "type": "SCALAR"
    },
    {
      "bufferView": 2,
      "byteOffset": 2704848,
      "componentType": 5126,
      "count": 6260,
      "max": [
        0.5463089942932129,
        -0.5116620063781738,
        0.4551199972629547
      ],
      "min": [
        -0.5463089942932129,
        -0.5451120138168335,
        0.011893999762833118
      ],
      "type": "VEC3"
    },
    {
      "bufferView": 2,
      "byteOffset": 2779968,
      "componentType": 5126,
      "count": 6260,
      "max": [
        0.9998781681060791,
        0.999852180480957,
        0.9999936819076538
      ],
      "min": [
        -0.9998781681060791,
        -0.999852180480957,
        -0.9999936819076538
      ],
      "type": "VEC3"
    },
    {
      "bufferView": 1,
      "byteOffset": 901616,
      "componentType": 5126,
      "count": 6260,
      "max": [
        1.0,
        1.0
      ],
      "min": [
        0.0,
        0.0
      ],
      "type": "VEC2"
    },
    {
      "bufferView": 0,
      "byteOffset": 2101440,
      "componentType": 5125,
      "count": 33792,
      "type": "SCALAR"
    },
    {
      "bufferView": 2,
      "byteOffset": 2855088,
      "componentType": 5126,
      "count": 14152,
      "max": [
        0.5550550222396851,
        -0.5093569755554199,
        0.4635550081729889
      ],
      "min": [
        -0.5550550222396851,
        -0.5474159717559814,
        0.003459000028669834
      ],
      "type": "VEC3"
    },
    {
      "bufferView": 2,
      "byteOffset": 3024912,
      "componentType": 5126,
      "count": 14152,
      "max": [
        0.9998912811279297,
        0.9996066689491272,
        0.9999921321868896
      ],
      "min": [
        -0.9998912811279297,
        -0.9997151494026184,
        -0.999992847442627
      ],
      "type": "VEC3"
    },
    {
      "bufferView": 3,
      "byteOffset": 95344,
      "componentType": 5126,
      "count": 14152,
      "max": [
        0.9578699469566345,
        0.9999791383743286,
        0.9998472929000854,
        1.0
      ],
      "min": [
        -0.9325541853904724,
        -0.9999868869781494,
        -0.9998331069946289,
        1.0
      ],
      "type": "VEC4"
    },
    {
      "bufferView": 1,
      "byteOffset": 951696,
      "componentType": 5126,
      "count": 14152,
      "max": [
        0.86422199010849,
        0.9639819860458374
      ],
      "min": [
        4.8999998398358e-05,
        0.010897999629378319
      ],
      "type": "VEC2"
    },
    {
      "bufferView": 0,
      "byteOffset": 2236608,
      "componentType": 5125,
      "count": 69120,
      "type": "SCALAR"
    }
  ],
  "asset": {
    "extras": {
      "author": "Dokono Kinokoda (https://sketchfab.com/JunkWren)",
      "license": "CC-BY-4.0 (http://creativecommons.org/licenses/by/4.0/)",
      "source": "https://sketchfab.com/3d-models/glasses-10-e46f3e28baf044d88cdb337a1264ad61",
      "title": "Glasses 10"
    },
    "generator": "Sketchfab-12.67.0",
    "version": "2.0"
  },
  "bufferViews": [
    {
      "buffer": 0,
      "byteLength": 2513088,
      "name": "floatBufferViews",
      "target": 34963
    },
    {
      "buffer": 0,
      "byteLength": 1064912,
      "byteOffset": 2513088,
      "byteStride": 8,
      "name": "floatBufferViews",
      "target": 34962
    },
    {
      "buffer": 0,
      "byteLength": 3194736,
      "byteOffset": 3578000,
      "byteStride": 12,
      "name": "floatBufferViews",
      "target": 34962
    },
    {
      "buffer": 0,
      "byteLength": 321776,
      "byteOffset": 6772736,
      "byteStride": 16,
      "name": "floatBufferViews",
      "target": 34962
    }
  ],
  "buffers": [
    {
      "byteLength": 7094512,
      "uri": "scene.bin"
    }
  ],
  "images": [
    {
      "uri": "textures/000_steel_baseColor.png"
    },
    {
      "uri": "textures/000_steel_metallicRoughness.png"
    },
    {
      "uri": "textures/001_rubber_metallicRoughness.png"
    },
    {
      "uri": "textures/001_rubber_normal.png"
    },
    {
      "uri": "textures/002_rubber_metallicRoughness.png"
    },
    {
      "uri": "textures/002_rubber_normal.png"
    }
  ],
  "materials": [
    {
      "doubleSided": true,
      "name": "000_steel",
      "pbrMetallicRoughness": {
        "baseColorTexture": {
          "index": 0
        },
        "metallicRoughnessTexture": {
          "index": 1
        },
        "roughnessFactor": 0.5
      }
    },
    {
      "doubleSided": true,
      "name": "001_rubber",
      "normalTexture": {
        "index": 3,
        "scale": 0.5
      },
      "pbrMetallicRoughness": {
        "baseColorFactor": [
          0.0,
          0.0,
          0.0,
          1.0
        ],
        "metallicFactor": 0.0,
        "metallicRoughnessTexture": {
          "index": 2
        },
        "roughnessFactor": 0.45
      }
    },
    {
      "alphaMode": "BLEND",
      "doubleSided": true,
      "name": "002_Glass",
      "pbrMetallicRoughness": {
        "baseColorFactor": [
          0.06542365923803356,
          0.3986275833224491,
          0.8193024440314856,
          0.42124199697207376
        ],
        "metallicFactor": 0.36044026533875684,
        "roughnessFactor": 0.050351434008840575
      }
    },
    {
      "doubleSided": true,
      "name": "002_rubber",
      "normalTexture": {
        "index": 5,
        "scale": 0.8
      },
      "pbrMetallicRoughness": {
        "baseColorFactor": [
          0.0,
          0.0,
          0.0,
          1.0
        ],
        "metallicFactor": 0.0,
        "metallicRoughnessTexture": {
          "index": 4
        },
        "roughnessFactor": 0.5
      }
    }
  ],
  "meshes": [
    {
      "name": "Object_0",
      "primitives": [
        {
          "attributes": {
            "NORMAL": 1,
            "POSITION": 0,
            "TEXCOORD_0": 2
          },
          "indices": 3,
          "material": 0,
          "mode": 4
        }
      ]
    },
    {
      "name": "Object_1",
      "primitives": [
        {
          "attributes": {
            "NORMAL": 5,
            "POSITION": 4,
            "TEXCOORD_0": 6
          },
          "indices": 7,
          "material": 0,
          "mode": 4
        }
      ]
    },
    {
      "name": "Object_2",
      "primitives": [
        {
          "attributes": {
            "NORMAL": 9,
            "POSITION": 8,
            "TEXCOORD_0": 10
          },
          "indices": 11,
          "material": 0,
          "mode": 4
        }
      ]
    },
    {
      "name": "Object_3",
      "primitives": [
        {
          "attributes": {
            "NORMAL": 13,
            "POSITION": 12,
            "TANGENT": 14,
            "TEXCOORD_0": 15
          },
          "indices": 16,
          "material": 1,
          "mode": 4
        }
      ]
    },
    {
      "name": "Object_4",
      "primitives": [
        {
          "attributes": {
            "NORMAL": 18,
            "POSITION": 17,
            "TEXCOORD_0": 19
          },
          "indices": 20,
          "material": 2,
          "mode": 4
        }
      ]
    },
    {
      "name": "Object_5",
      "primitives": [
        {
          "attributes": {
            "NORMAL": 22,
            "POSITION": 21,
            "TANGENT": 23,
            "TEXCOORD_0": 24
          },
          "indices": 25,
          "material": 3,
          "mode": 4
        }
      ]
    }
  ],
  "nodes": [
    {
      "children": [
        1
      ],
      "matrix": [
        1.0,
        0.0,
        0.0,
        0.0,
        0.0,
        2.220446049250313e-16,
        -1.0,
        0.0,
        0.0,
        1.0,
        2.220446049250313e-16,
        0.0,
        0.0,
        0.0,
        0.0,
        1.0
      ],
      "name": "Sketchfab_model"
    },
    {
      "children": [
        2,
        3,
        4,
        5,
        6,
        7
      ],
      "name": "072916_05.obj.cleaner.materialmerger.gles"
    },
    {
      "mesh": 0,
      "name": "Object_2"
    },
    {
      "mesh": 1,
      "name": "Object_3"
    },
    {
      "mesh": 2,
      "name": "Object_4"
    },
    {
      "mesh": 3,
      "name": "Object_5"
    },
    {
      "mesh": 4,
      "name": "Object_6"
    },
    {
      "mesh": 5,
      "name": "Object_7"
    }
  ],
  "samplers": [
    {
      "magFilter": 9729,
      "minFilter": 9987,
      "wrapS": 10497,
      "wrapT": 10497
    }
  ],
  "scene": 0,
  "scenes": [
    {
      "name": "Sketchfab_Scene",
      "nodes": [
        0
      ]
    }
  ],
  "textures": [
    {
      "sampler": 0,
      "source": 0
    },
    {
      "sampler": 0,
      "source": 1
    },
    {
      "sampler": 0,
      "source": 2
    },
    {
      "sampler": 0,
      "source": 3
    },
    {
      "sampler": 0,
      "source": 4
    },
    {
      "sampler": 0,
      "source": 5
    }
  ]
}
